<svg width="2546" height="1492" viewBox="0 0 2546 1492" fill="none" xmlns="http://www.w3.org/2000/svg">
    <g clip-path="url(#clip0)">
    <path d="M2533 -3H0V1489H2533V-3Z" fill="transparent"/>
    <path fill-rule="evenodd" clip-rule="evenodd" d="M13.3991 331.78C5.01025 493.673 129.892 632.209 291.78 640.601C453.673 648.991 592.209 524.11 600.601 362.216C608.993 200.326 484.111 61.7914 322.217 53.3993C160.328 45.008 21.7912 169.889 13.3991 331.78Z" fill="#F7EDDF"/>
    <path fill-rule="evenodd" clip-rule="evenodd" d="M1595.4 1068.78C1587.01 1230.67 1711.89 1369.21 1873.78 1377.6C2035.67 1385.99 2174.21 1261.11 2182.6 1099.22C2190.99 937.326 2066.11 798.791 1904.22 790.399C1742.33 782.008 1603.79 906.89 1595.4 1068.78Z" fill="#F7EDDF"/>
    <path d="M1996.78 89.52C1992.08 85.1361 1985.55 83.3647 1979.31 84.7904C1973.07 86.2128 1967.93 90.6466 1965.55 96.6458L1820.91 461.985L1598.1 232.736C1593.57 228.079 1587.05 225.999 1580.7 227.189C1574.35 228.381 1568.99 232.682 1566.42 238.669L1354.41 731.755L1282.97 694.099C1275.01 690.794 1265.94 691.793 1258.88 696.749C1255.51 699.117 1252.81 702.235 1250.95 705.792C1248.91 709.681 1247.86 714.096 1248.01 718.633L1253.51 1039.26C1253.82 1048.59 1259.13 1057 1267.37 1061.23C1275.6 1065.45 1285.45 1064.81 1293.09 1059.56L1562.07 883.602C1569.78 878.302 1573.98 869.158 1573.01 859.793C1572.05 850.427 1566.07 842.352 1557.45 838.771L1484.59 800.366L1625.65 472.283L1852.73 705.922C1857.33 710.653 1863.98 712.719 1870.41 711.413C1876.84 710.11 1882.19 705.613 1884.63 699.459L2032.96 324.799L2261.93 538.592C2266.36 542.724 2272.43 544.547 2278.37 543.529C2284.31 542.509 2289.45 538.762 2292.27 533.384L2530.73 79.8517C2533.15 75.2531 2533.65 69.8729 2532.15 64.8956C2530.64 59.9191 2527.24 55.7499 2522.69 53.3071L2427.67 2.29903C2418.19 -2.78843 2406.43 0.85005 2401.4 10.4251L2240.27 316.876L1996.78 89.52Z" fill="#F7EDDF"/>
    </g>
    <defs>
    <clipPath id="clip0">
    <rect width="2546" height="3546" fill="white"/>
    </clipPath>
    </defs>
</svg>
