<svg width="543" height="446" viewBox="0 0 543 446" fill="none" xmlns="http://www.w3.org/2000/svg">
<path d="M79.8653 364.497C123.974 364.497 159.731 328.068 159.731 283.13C159.731 238.193 123.974 201.763 79.8653 201.763C35.7569 201.763 0 238.193 0 283.13C0 328.068 35.7569 364.497 79.8653 364.497Z" fill="#F2F2F2"/>
<path d="M92.8516 352.59C136.96 352.59 172.717 316.161 172.717 271.223C172.717 226.285 136.96 189.856 92.8516 189.856C48.7432 189.856 12.9862 226.285 12.9862 271.223C12.9862 316.161 48.7432 352.59 92.8516 352.59Z" fill="#FF7E1D"/>
<path d="M107.786 47.6294H37.6601V119.074H107.786V47.6294Z" fill="#F2F2F2"/>
<path d="M117.525 37.0451H47.3998V108.489H117.525V37.0451Z" fill="#FF7E1D"/>
<path d="M214.448 439.696H111.589V440.936H214.448V439.696Z" fill="#3F3D56"/>
<path d="M151.939 93.9358H59.7367V0H151.939V93.9358ZM61.0353 92.6127H150.64V1.32304H61.0353V92.6127Z" fill="#3F3D56"/>
<path d="M213.624 181.918H195.443V200.44H213.624V181.918Z" fill="#F2F2F2"/>
<path d="M217.519 177.287H199.339V195.81H217.519V177.287Z" fill="#FF7E1D"/>
<path d="M235.051 189.195H205.183V158.765H235.051V189.195ZM206.481 187.872H233.752V160.088H206.481V187.872Z" fill="#3F3D56"/>
<path d="M162.977 441.233C108.199 441.233 63.6326 395.83 63.6326 340.021C63.6326 284.212 108.199 238.809 162.977 238.809C217.756 238.809 262.322 284.212 262.322 340.021C262.322 395.83 217.756 441.233 162.977 441.233ZM162.977 240.132C108.914 240.132 64.9312 284.942 64.9312 340.021C64.9312 395.1 108.914 439.91 162.977 439.91C217.04 439.91 261.023 395.1 261.023 340.021C261.023 284.942 217.04 240.132 162.977 240.132Z" fill="#3F3D56"/>
<path d="M446.253 443.003H343.393V444.244H446.253V443.003Z" fill="#3F3D56"/>
<path d="M543 330.545H440.141V331.785H543V330.545Z" fill="#3F3D56"/>
<path d="M407.322 38.6743H407.322C387.725 44.0829 376.615 66.4294 382.506 88.5867L389.991 116.738L398.49 114.392L400.636 102.604L402.18 113.374L456.803 98.2987L458.754 87.5823L460.157 97.3729L466.307 95.6756L460.43 73.5719C453.651 48.0747 429.873 32.4505 407.322 38.6743Z" fill="#2F2E41"/>
<path d="M367.186 383.351L375.627 413.78L374.328 425.026L399.002 419.734C399.002 419.734 388.613 401.873 389.912 392.612L367.186 383.351Z" fill="#FFB8B8"/>
<path d="M478.867 274.2L472.374 309.922L493.802 306.614L494.776 269.238L478.867 274.2Z" fill="#FFB8B8"/>
<path d="M414.586 102.205C427.495 102.205 437.961 91.5426 437.961 78.3901C437.961 65.2376 427.495 54.5753 414.586 54.5753C401.676 54.5753 391.21 65.2376 391.21 78.3901C391.21 91.5426 401.676 102.205 414.586 102.205Z" fill="#FFB8B8"/>
<path d="M407.119 95.9203L405.82 109.151L395.431 115.104L422.702 176.626L443.48 125.689L429.844 115.104L428.546 89.9666L407.119 95.9203Z" fill="#FFB8B8"/>
<path d="M426.273 161.742L399.68 112.669C399.68 112.669 378.224 114.112 373.03 118.743L383.419 186.218L380.172 194.817C380.172 194.817 353.55 222.601 358.745 282.8C363.939 342.998 363.939 389.966 363.939 389.966C363.939 389.966 382.769 412.457 421.728 389.966V270.231L476.919 265.6V280.153C476.919 280.153 534.059 265.6 535.358 243.77L520.658 217.76C517.818 212.735 513.397 208.833 508.111 206.685C502.824 204.538 496.98 204.271 491.526 205.927L443.155 220.617L437.961 200.771L443.155 186.218C443.155 186.218 456.791 175.633 456.791 161.742C456.791 147.85 460.687 131.312 460.687 131.312L435.429 119.439L426.273 161.742Z" fill="#2F2E41"/>
<path d="M472.374 156.449L482.763 182.249C482.763 182.249 493.802 195.479 495.75 210.032L498.996 227.232C498.996 227.232 506.788 257.662 494.451 256.339C482.114 255.016 485.361 225.909 485.361 225.909L483.413 217.309L472.374 198.787L456.087 167.245L472.374 156.449Z" fill="#FFB8B8"/>
<path d="M474.322 303.968C474.322 303.968 492.902 305.825 496.598 297.289L515.229 312.568C515.229 312.568 548.971 321.774 530.163 329.767C512.632 337.218 495.1 329.263 495.1 331.09C495.1 331.09 489.906 326.46 484.062 329.767C478.218 333.075 460.687 329.767 461.336 324.475C461.985 319.183 464.583 299.999 474.322 303.968Z" fill="#2F2E41"/>
<path d="M374.978 417.088C374.978 417.088 393.557 418.945 397.254 410.409L415.884 425.688C415.884 425.688 449.756 435.22 430.818 442.887C413.305 449.978 395.765 442.492 395.756 444.21C395.756 444.21 390.561 439.58 384.717 442.887C378.873 446.195 361.342 442.887 361.991 437.595C362.641 432.303 365.238 413.119 374.978 417.088Z" fill="#2F2E41"/>
<path d="M452.246 128.666L460.687 131.312L478.867 159.095L445.753 181.587L452.246 128.666Z" fill="#2F2E41"/>
<path d="M420.348 46.9419C415.543 43.2515 409.501 41.7415 403.635 43.3604L402.938 43.5527C389.506 47.2597 381.91 62.6476 385.972 77.9226V77.9227L390.473 76.6805L389.701 70.8434L392.265 76.1858L418.958 68.8188L419.927 63.433L420.636 68.3559L425.887 66.9066C431.634 78.6287 431.41 91.9987 425.214 107.017L434.16 104.548L436.097 93.7764L437.514 103.622L454.567 98.9159L452.089 76.0545C447.72 59.6268 434.648 48.2821 420.348 46.9419Z" fill="#2F2E41"/>
<path d="M425.949 44.3218C432.403 44.3218 437.636 38.9907 437.636 32.4145C437.636 25.8382 432.403 20.5071 425.949 20.5071C419.494 20.5071 414.261 25.8382 414.261 32.4145C414.261 38.9907 419.494 44.3218 425.949 44.3218Z" fill="#2F2E41"/>
<path d="M425.299 39.0296C422.563 39.0312 419.912 38.0538 417.811 36.2679C415.709 34.4821 414.29 32.0011 413.8 29.2579C413.31 26.5148 413.782 23.6836 415.132 21.2583C416.482 18.833 418.625 16.9677 421.187 15.9877C419.551 16.2016 417.978 16.766 416.572 17.6438C415.165 18.5217 413.957 19.693 413.027 21.0807C412.097 22.4685 411.466 24.0411 411.176 25.6952C410.885 27.3493 410.942 29.0473 411.342 30.6775C411.742 32.3077 412.476 33.833 413.497 35.1532C414.517 36.4734 415.8 37.5585 417.262 38.337C418.724 39.1155 420.331 39.5698 421.977 39.67C423.623 39.7702 425.272 39.5141 426.814 38.9184C426.312 38.9888 425.806 39.0259 425.299 39.0296V39.0296Z" fill="#2F2E41"/>
<path d="M429.52 82.6899C431.134 82.6899 432.442 80.7648 432.442 78.3901C432.442 76.0153 431.134 74.0902 429.52 74.0902C427.906 74.0902 426.598 76.0153 426.598 78.3901C426.598 80.7648 427.906 82.6899 429.52 82.6899Z" fill="#FFB8B8"/>
<path d="M373.354 310.253C357.281 307.815 337.809 308.382 316.864 310.253C325.597 293.94 325.597 279.607 316.864 267.254C335.625 269.575 354.593 269.575 373.354 267.254C365.31 280.898 366.019 295.292 373.354 310.253Z" fill="#FF7E1D"/>
<path d="M365.887 158.434L363.939 184.895C363.939 184.895 354.849 199.448 352.901 230.54L352.252 249.724C352.252 249.724 338.616 276.846 349.654 276.184C360.693 275.523 360.043 250.385 360.043 250.385L379.523 192.833V165.049L365.887 158.434Z" fill="#FFB8B8"/>
<path d="M377.575 119.404H373.03C373.03 119.404 365.887 124.035 360.043 143.881C354.2 163.726 353.55 164.388 353.55 164.388L384.068 171.664L377.575 119.404Z" fill="#2F2E41"/>
<path d="M354.524 280.484H336.344V299.007H354.524V280.484Z" fill="#D0CDE1"/>
</svg>
