<svg width="1200" height="628" viewBox="0 0 398 101" fill="none" xmlns="http://www.w3.org/2000/svg">
    <path d="M124.935 77.98C122.135 77.98 119.195 77.63 116.115 76.93C113.035 76.23 110.585 75.4367 108.765 74.55L109.745 65.94C115.812 68.8333 121.295 70.28 126.195 70.28C128.948 70.28 131.095 69.7667 132.635 68.74C134.175 67.7133 134.945 66.1733 134.945 64.12C134.945 62.5333 134.525 61.25 133.685 60.27C132.892 59.29 131.702 58.45 130.115 57.75C128.528 57.0033 126.172 56.1167 123.045 55.09C120.012 54.11 117.492 53.06 115.485 51.94C113.478 50.7733 111.868 49.3033 110.655 47.53C109.488 45.71 108.905 43.4467 108.905 40.74C108.905 36.6333 110.422 33.32 113.455 30.8C116.535 28.28 120.922 27.02 126.615 27.02C129.415 27.02 132.168 27.3233 134.875 27.93C137.582 28.5367 139.985 29.3067 142.085 30.24L141.245 38.64C138.445 37.2867 135.832 36.2833 133.405 35.63C131.025 34.9767 128.598 34.65 126.125 34.65C123.325 34.65 121.155 35.14 119.615 36.12C118.075 37.0533 117.305 38.5 117.305 40.46C117.305 41.86 117.678 43.0267 118.425 43.96C119.218 44.8467 120.292 45.5933 121.645 46.2C123.045 46.8067 125.052 47.53 127.665 48.37C133.265 50.0967 137.372 52.1267 139.985 54.46C142.645 56.7467 143.975 59.8967 143.975 63.91C143.975 67.8767 142.528 71.2133 139.635 73.92C136.742 76.6267 131.842 77.98 124.935 77.98ZM160.8 77.7C157.767 77.7 155.457 76.8367 153.87 75.11C152.33 73.3833 151.56 71.3067 151.56 68.88V48.58H146.31L147.01 42.28H151.56V34.3L159.4 33.46V42.28H167.59V48.58H159.4V65.24C159.4 67.2933 159.517 68.7167 159.75 69.51C159.983 70.2567 160.473 70.7467 161.22 70.98C162.013 71.2133 163.413 71.33 165.42 71.33H167.52L166.82 77.7H160.8ZM188.579 77.7C184.986 77.7 181.859 76.9067 179.199 75.32C176.539 73.6867 174.486 71.4933 173.039 68.74C171.639 65.9867 170.939 62.9533 170.939 59.64C170.939 56.3267 171.639 53.2933 173.039 50.54C174.486 47.7867 176.539 45.6167 179.199 44.03C181.859 42.3967 184.986 41.58 188.579 41.58C192.219 41.58 195.369 42.3967 198.029 44.03C200.689 45.6167 202.719 47.7867 204.119 50.54C205.519 53.2933 206.219 56.3267 206.219 59.64C206.219 62.9533 205.519 65.9867 204.119 68.74C202.719 71.4933 200.689 73.6867 198.029 75.32C195.369 76.9067 192.219 77.7 188.579 77.7ZM188.579 71.12C191.613 71.12 193.969 70.0933 195.649 68.04C197.376 65.9867 198.239 63.1867 198.239 59.64C198.239 56.14 197.376 53.3633 195.649 51.31C193.969 49.21 191.613 48.16 188.579 48.16C185.546 48.16 183.189 49.21 181.509 51.31C179.829 53.3633 178.989 56.14 178.989 59.64C178.989 63.1867 179.829 65.9867 181.509 68.04C183.189 70.0933 185.546 71.12 188.579 71.12ZM212.483 42.28H219.553L219.973 46.69C221.233 45.15 222.679 43.9133 224.313 42.98C225.946 42.0467 227.649 41.58 229.423 41.58C229.889 41.58 230.403 41.6267 230.963 41.72L230.333 49.7C229.586 49.4667 228.699 49.35 227.673 49.35C226.133 49.35 224.686 49.7233 223.333 50.47C221.979 51.17 221.023 52.01 220.463 52.99V77H212.483V42.28ZM245.816 74.97L231.326 42.28H240.006L249.596 65.87L258.906 42.28H267.656L246.026 93.94H237.976L245.816 74.97ZM274.264 48.58H268.874L269.714 42.28H274.264V34.58C274.264 31.4533 275.15 29.0033 276.924 27.23C278.697 25.41 281.217 24.5 284.484 24.5C286.584 24.5 288.45 24.7333 290.084 25.2L289.244 31.64C288.264 31.3133 287.26 31.15 286.234 31.15C283.434 31.15 282.034 32.6667 282.034 35.7V42.28H290.294V48.58H282.034V77H274.264V48.58ZM304.498 77.7C301.511 77.7 299.271 76.8833 297.778 75.25C296.331 73.57 295.608 71.4467 295.608 68.88V24.5H303.378V65.24C303.378 67.2 303.494 68.6 303.728 69.44C303.961 70.2333 304.381 70.7467 304.988 70.98C305.594 71.2133 306.621 71.33 308.068 71.33L307.298 77.7H304.498ZM328.511 77.7C324.917 77.7 321.791 76.9067 319.131 75.32C316.471 73.6867 314.417 71.4933 312.971 68.74C311.571 65.9867 310.871 62.9533 310.871 59.64C310.871 56.3267 311.571 53.2933 312.971 50.54C314.417 47.7867 316.471 45.6167 319.131 44.03C321.791 42.3967 324.917 41.58 328.511 41.58C332.151 41.58 335.301 42.3967 337.961 44.03C340.621 45.6167 342.651 47.7867 344.051 50.54C345.451 53.2933 346.151 56.3267 346.151 59.64C346.151 62.9533 345.451 65.9867 344.051 68.74C342.651 71.4933 340.621 73.6867 337.961 75.32C335.301 76.9067 332.151 77.7 328.511 77.7ZM328.511 71.12C331.544 71.12 333.901 70.0933 335.581 68.04C337.307 65.9867 338.171 63.1867 338.171 59.64C338.171 56.14 337.307 53.3633 335.581 51.31C333.901 49.21 331.544 48.16 328.511 48.16C325.477 48.16 323.121 49.21 321.441 51.31C319.761 53.3633 318.921 56.14 318.921 59.64C318.921 63.1867 319.761 65.9867 321.441 68.04C323.121 70.0933 325.477 71.12 328.511 71.12ZM348.644 42.28H356.694L362.924 67.76L369.784 43.05H376.784L383.574 67.76L389.874 42.28H397.924L387.704 77H380.494L373.284 53.27L366.074 77H358.864L348.644 42.28Z" fill="black"/>
    <path d="M90.5108 21.2866C89.0713 19.3186 87.4905 17.4574 85.7802 15.7177C85.6586 15.5958 85.5433 15.4746 85.4217 15.3527C80.016 9.9625 73.4426 5.87787 66.2056 3.4126V68.7994C66.2056 70.9912 65.7723 73.1616 64.9303 75.1866C64.0884 77.2116 62.8543 79.0515 61.2984 80.6011C59.7425 82.1515 57.8955 83.3809 55.8626 84.2194C53.8297 85.0579 51.6509 85.4897 49.4506 85.4897H39.4628V99.3333C42.9393 100.072 46.4841 100.445 50.0389 100.445C59.2695 100.446 68.3205 97.9033 76.1907 93.099C84.0612 88.2946 90.4437 81.4145 94.6326 73.2212C98.8215 65.0277 100.653 55.8395 99.9262 46.6732C99.199 37.5069 95.9402 28.7196 90.5108 21.2834V21.2866Z" fill="#FF7E1D"/>
    <path d="M50.0389 0.755615C40.8086 0.756491 31.7584 3.30029 23.8891 8.1057C16.0198 12.9111 9.638 19.7909 5.44939 27.9843C1.26078 36.1777 -0.571416 45.3655 0.155414 54.5315C0.88224 63.6976 4.13979 72.4848 9.5678 79.9215C11.0105 81.8888 12.5939 83.7498 14.3055 85.4897C14.4232 85.6077 14.5384 85.7256 14.6561 85.8515C20.0608 91.2411 26.6322 95.3265 33.8667 97.7948V32.4017C33.8686 27.9753 35.6351 23.7309 38.7777 20.6017C41.9205 17.4725 46.1821 15.7146 50.6256 15.7146H60.6135V1.87097C57.1379 1.12941 53.5934 0.755551 50.0389 0.755615Z" fill="#FF7E1D"/>
</svg>

