<svg width="32" height="32" viewBox="0 0 32 32" fill="none" xmlns="http://www.w3.org/2000/svg">
    <path d="M28.9398 6.59042C28.4795 5.9587 27.9741 5.36126 27.4272 4.80281C27.3884 4.76368 27.3515 4.72479 27.3126 4.68566C25.5842 2.95541 23.4824 1.64425 21.1685 0.852905V21.8419C21.1685 22.5455 21.0299 23.2422 20.7607 23.8922C20.4915 24.5422 20.0969 25.1328 19.5995 25.6303C19.102 26.1279 18.5114 26.5226 17.8614 26.7917C17.2114 27.0609 16.5148 27.1995 15.8113 27.1995H12.6178V31.6433C13.7293 31.8803 14.8628 32 15.9994 32C18.9507 32.0003 21.8447 31.1842 24.3611 29.642C26.8776 28.0998 28.9183 25.8913 30.2577 23.2613C31.5971 20.6312 32.1828 17.6818 31.9503 14.7395C31.7177 11.7971 30.6758 8.9764 28.9398 6.58941V6.59042Z" fill="#FE6E02"/>
    <path d="M15.9994 2.65462e-09C13.0481 0.000281059 10.1544 0.816834 7.63827 2.35936C5.12217 3.90189 3.08164 6.1103 1.74238 8.74036C0.403121 11.3704 -0.182704 14.3197 0.0496919 17.262C0.282086 20.2042 1.32365 23.0249 3.0592 25.4121C3.52049 26.0436 4.02674 26.641 4.57402 27.1995C4.61164 27.2373 4.6485 27.2752 4.68612 27.3156C6.41421 29.0456 8.51533 30.3571 10.8285 31.1494V10.1583C10.8291 8.73748 11.3939 7.37503 12.3987 6.37056C13.4036 5.36609 14.7662 4.80181 16.187 4.80181H19.3805V0.358027C18.2692 0.119987 17.1359 -2.0609e-05 15.9994 2.65462e-09Z" fill="#FE6E02"/>
</svg>
